<?xml version="1.0" encoding="UTF-8"?>
<!DOCTYPE svg PUBLIC "-//W3C//DTD SVG 1.1//EN" "http://www.w3.org/Graphics/SVG/1.1/DTD/svg11.dtd">
<svg xmlns="http://www.w3.org/2000/svg" version="1.1" width="445px" height="360px" style="shape-rendering:geometricPrecision; text-rendering:geometricPrecision; image-rendering:optimizeQuality; fill-rule:evenodd; clip-rule:evenodd" xmlns:xlink="http://www.w3.org/1999/xlink">
<g><path style="opacity:0.983" fill="#181919" d="M 93.5,-0.5 C 102.5,-0.5 111.5,-0.5 120.5,-0.5C 172.037,9.2038 202.871,39.8705 213,91.5C 217.244,144.198 195.744,182.031 148.5,205C 98.0275,222.592 55.5275,211.092 21,170.5C 7.92902,151.784 0.762354,131.117 -0.5,108.5C -0.5,107.167 -0.5,105.833 -0.5,104.5C 4.79927,46.2004 36.1326,11.2004 93.5,-0.5 Z M 100.5,53.5 C 131.662,52.8458 151.162,67.5124 159,97.5C 161.6,124.813 150.433,143.98 125.5,155C 99.1725,162.78 78.0058,155.613 62,133.5C 48.4104,106.112 53.2438,82.6123 76.5,63C 84.0175,58.3334 92.0175,55.1667 100.5,53.5 Z"/></g>
<g><path style="opacity:0.98" fill="#181919" d="M 250.5,-0.5 C 255.167,-0.5 259.833,-0.5 264.5,-0.5C 274.586,3.08891 281.086,10.0889 284,20.5C 284.333,51.5 284.667,82.5 285,113.5C 291.54,141.202 309.04,156.202 337.5,158.5C 358.936,157.207 374.77,147.207 385,128.5C 386.937,124.354 388.271,120.021 389,115.5C 389.044,83.1328 389.711,50.7994 391,18.5C 394.121,8.54368 400.621,2.21035 410.5,-0.5C 414.833,-0.5 419.167,-0.5 423.5,-0.5C 435.03,3.03039 442.03,10.6971 444.5,22.5C 444.5,52.8333 444.5,83.1667 444.5,113.5C 437.431,166.411 407.764,198.911 355.5,211C 308.961,216.971 272.461,200.805 246,162.5C 237.896,149.282 232.896,134.949 231,119.5C 230.333,86.1667 230.333,52.8333 231,19.5C 234.351,9.64981 240.851,2.98314 250.5,-0.5 Z"/></g>
<g><path style="opacity:0.981" fill="#8ac64c" d="M 231.5,359.5 C 225.167,359.5 218.833,359.5 212.5,359.5C 132.705,356.079 63.5384,327.412 5,273.5C -1.47672,261.705 -0.810055,250.372 7,239.5C 17.2395,229.901 28.7395,228.068 41.5,234C 115.175,298.916 199.841,319.25 295.5,295C 335.708,283.24 371.041,263.24 401.5,235C 415.077,227.739 427.244,229.573 438,240.5C 443.648,249.153 444.981,258.487 442,268.5C 438.926,274.243 434.759,279.076 429.5,283C 372.196,330.608 306.196,356.108 231.5,359.5 Z"/></g>
</svg>
